# xmcd
#
# Track frame offsets: 
#        150
#        17110
#        32137
#        51575
#        71969
#        92087
#        119867
#        131410
#        152796
#        175066
#        188713
#        200475
#        221808
#
# Disc length: 3276 seconds
#
# Revision: 1
# Processed by: cddbd v1.5.1PL2 Copyright (c) Steve Scherf et al.
# Submitted via: ExactAudioCopy v0.95a5
#
DISCID=c90cca0d
DTITLE=Diana Krall - When I Look In Your Eyes
DYEAR=1999
DGENRE=Jazz
TTITLE0=Why Should I Care
TTITLE1=Devil May Care
TTITLE2=Let's Fall in Love
TTITLE3=When I Look in Your Eyes
TTITLE4=Popsicle Toes
TTITLE5=I've Got You Under My Skin
TTITLE6=I Can't Give You Anything But Love
TTITLE7=I'll String Along With You
TTITLE8=East of the Sun (And West of the Moon)
TTITLE9=Pick Yourself Up
TTITLE10=Best Thing for You
TTITLE11=Do It Again
TTITLE12=Let's Face the Music and Dance
EXTD=YEAR: 1999
EXTT0=
EXTT1=
EXTT2=
EXTT3=
EXTT4=
EXTT5=
EXTT6=
EXTT7=
EXTT8=
EXTT9=
EXTT10=
EXTT11=
EXTT12=
PLAYORDER=
